<svg xmlns="http://www.w3.org/2000/svg" viewBox="0 0 24 24" width="24" height="24">
  <path d="M7.948 2.817H1.057v10.127h2.062V4.824h4.829V2.817z" fill="#00BAF2"/>
  <path d="M14.472 2.817h-6.89v2.007h4.829v8.12h2.061V2.817z" fill="#00BAF2"/>
  <path d="M20.993 2.817h-6.89v10.127h2.061V4.824h4.83V2.817h-.001z" fill="#00BAF2"/>
  <path d="M19.068 8.986c-.69-.635-1.665-.912-2.726-.781-1.062.13-1.918.672-2.412 1.52-.494.85-.494 1.857 0 2.835.494.977 1.35 1.647 2.412 1.908 1.061.26 2.036.065 2.726-.52.69-.585 1.035-1.454 1.035-2.477 0-1.023-.345-1.85-1.035-2.485z" fill="#00BAF2"/>
</svg> 